<svg width="28" height="28" viewBox="0 0 28 28" fill="none" xmlns="http://www.w3.org/2000/svg">
<path d="M24.5003 19.8332V9.33317H8.16699V19.8332H24.5003ZM24.5003 3.49984C25.1192 3.49984 25.7127 3.74567 26.1502 4.18325C26.5878 4.62084 26.8337 5.21433 26.8337 5.83317V19.8332C26.8337 20.452 26.5878 21.0455 26.1502 21.4831C25.7127 21.9207 25.1192 22.1665 24.5003 22.1665H8.16699C7.54815 22.1665 6.95466 21.9207 6.51708 21.4831C6.07949 21.0455 5.83366 20.452 5.83366 19.8332V5.83317C5.83366 5.21433 6.07949 4.62084 6.51708 4.18325C6.95466 3.74567 7.54815 3.49984 8.16699 3.49984H9.33366V1.1665H11.667V3.49984H21.0003V1.1665H23.3337V3.49984H24.5003ZM3.50033 24.4998H19.8337V26.8332H3.50033C2.88149 26.8332 2.28799 26.5873 1.85041 26.1498C1.41282 25.7122 1.16699 25.1187 1.16699 24.4998V10.4998H3.50033V24.4998ZM22.167 17.4998H17.5003V12.8332H22.167V17.4998Z" fill="#41444A"/>
</svg>
