<svg width="28" height="28" viewBox="0 0 28 28" fill="none" xmlns="http://www.w3.org/2000/svg">
<path d="M14 24.5C19.799 24.5 24.5 19.799 24.5 14C24.5 8.20101 19.799 3.5 14 3.5C8.20101 3.5 3.5 8.20101 3.5 14C3.5 19.799 8.20101 24.5 14 24.5Z" stroke="#41444A" stroke-width="2.33333" stroke-linecap="round" stroke-linejoin="round"/>
<path d="M13.1915 11.3622L17.5 10.5L16.6378 14.8085C16.5476 15.2601 16.3257 15.6749 16.0002 16.0006C15.6747 16.3263 15.26 16.5485 14.8085 16.639L10.5 17.5L11.3622 13.1915C11.4526 12.7401 11.6746 12.3256 12.0001 12.0001C12.3256 11.6746 12.7401 11.4526 13.1915 11.3622Z" stroke="#41444A" stroke-width="2.33333" stroke-linecap="round" stroke-linejoin="round"/>
</svg>
