<svg width="28" height="28" viewBox="0 0 28 28" fill="none" xmlns="http://www.w3.org/2000/svg">
<path d="M13.9413 21.0002C14.3497 21.0002 14.695 20.859 14.9773 20.5767C15.2597 20.2943 15.4005 19.9494 15.3997 19.5418C15.3989 19.1343 15.2581 18.7889 14.9773 18.5058C14.6966 18.2227 14.3512 18.0819 13.9413 18.0835C13.5315 18.0851 13.1865 18.2262 12.9065 18.507C12.6265 18.7878 12.4853 19.1327 12.483 19.5418C12.4807 19.9509 12.6218 20.2963 12.9065 20.5778C13.1912 20.8594 13.5361 21.0002 13.9413 21.0002ZM12.8913 16.5085H15.0497C15.0497 15.8668 15.1228 15.3613 15.269 14.9918C15.4152 14.6224 15.8282 14.1168 16.508 13.4752C17.0136 12.9696 17.4122 12.4882 17.7038 12.0308C17.9955 11.5735 18.1413 11.0244 18.1413 10.3835C18.1413 9.29461 17.7427 8.4585 16.9455 7.87517C16.1483 7.29184 15.2052 7.00017 14.1163 7.00017C13.008 7.00017 12.1089 7.29184 11.419 7.87517C10.7291 8.4585 10.2477 9.1585 9.97468 9.97517L11.8997 10.7335C11.9969 10.3835 12.2158 10.0043 12.5565 9.596C12.8972 9.18767 13.4171 8.9835 14.1163 8.9835C14.7386 8.9835 15.2052 9.15383 15.5163 9.4945C15.8275 9.83517 15.983 10.2093 15.983 10.6168C15.983 11.0057 15.8663 11.3705 15.633 11.7112C15.3997 12.0518 15.108 12.3676 14.758 12.6585C13.9025 13.4168 13.3775 13.9904 13.183 14.3793C12.9886 14.7682 12.8913 15.4779 12.8913 16.5085ZM13.9997 25.6668C12.3858 25.6668 10.8691 25.3608 9.44968 24.7487C8.03023 24.1366 6.79551 23.3051 5.74551 22.2543C4.69551 21.2036 3.86445 19.9688 3.25234 18.5502C2.64023 17.1315 2.33379 15.6148 2.33301 14.0002C2.33223 12.3855 2.63868 10.8688 3.25234 9.45017C3.86601 8.0315 4.69706 6.79678 5.74551 5.746C6.79395 4.69522 8.02868 3.86417 9.44968 3.25284C10.8707 2.6415 12.3873 2.33506 13.9997 2.3335C15.612 2.33195 17.1287 2.63839 18.5497 3.25284C19.9707 3.86728 21.2054 4.69834 22.2538 5.746C23.3023 6.79367 24.1337 8.02839 24.7482 9.45017C25.3626 10.8719 25.6687 12.3886 25.6663 14.0002C25.664 15.6117 25.3576 17.1284 24.747 18.5502C24.1365 19.9719 23.3054 21.2067 22.2538 22.2543C21.2023 23.302 19.9676 24.1334 18.5497 24.7487C17.1318 25.3639 15.6151 25.6699 13.9997 25.6668Z" fill="#41444A"/>
</svg>
