<svg width="772" height="832" viewBox="0 0 772 832" fill="none" xmlns="http://www.w3.org/2000/svg">
<g clip-path="url(#clip0_1407_2367)">
<path opacity="0.3" d="M163.446 594.35C68.434 564.039 61.4063 493.102 69.769 461.423L168.504 -22.5161L1833.66 317.215L1734.92 801.154C1730.21 833.578 1695.95 896.091 1596.66 886.76C1472.54 875.095 1466.46 921.656 1440.29 955.012C1414.11 988.368 1376.99 1019.49 1279.07 968.785C1181.16 918.078 1081.41 887.485 989.469 941.567C915.912 984.833 854.465 978.897 832.346 974.384C810.228 969.872 751.366 951.261 700.638 882.638C637.227 796.86 533.474 785.935 423.519 794.232C313.565 802.528 291.605 759.351 280.585 718.406C269.566 677.461 282.211 632.238 163.446 594.35Z" fill="url(#paint0_linear_1407_2367)"/>
<path opacity="0.6" d="M212.05 550.156C133.342 513.396 135.166 451.331 145.917 424.894L285.077 17.8083L1685.79 496.635L1546.63 903.721C1538.95 931.206 1502.4 981.399 1417.66 962.286C1311.73 938.395 1301.3 977.943 1274.97 1003.85C1248.64 1029.75 1213.11 1052.5 1134.16 997.8C1055.22 943.096 972.457 905.566 887.006 942.054C818.645 971.244 766.221 959.277 747.615 952.917C729.01 946.557 680.23 923.928 644.043 858.999C598.81 777.837 510.393 756.851 414.48 751.78C318.567 746.71 304.401 706.965 299.439 670.366C294.477 633.767 310.434 596.107 212.05 550.156Z" fill="url(#paint1_linear_1407_2367)"/>
<path d="M85.5017 75.67C30.6157 8.33708 59.251 -46.7567 80.4294 -65.8869L382.787 -371.933L1435.84 668.431L1133.48 974.477C1114.61 995.886 1059.87 1025.19 991.875 971.121C906.883 903.539 880.286 934.612 845.313 946.486C810.34 958.36 768.448 963.398 721.151 879.804C673.854 796.209 615.652 726.42 522.837 722.112C448.584 718.666 406.583 685.09 392.595 671.271C378.607 657.452 344.524 615.86 340.178 541.655C334.746 448.898 264.256 391.547 180.094 345.267C95.9326 298.987 100.463 257.037 111.912 221.922C123.361 186.808 154.109 159.836 85.5017 75.67Z" fill="url(#paint2_linear_1407_2367)"/>
<path d="M382.573 354.545C318.034 296.399 337.906 237.574 355.909 215.429L607.898 -133.262L1807.69 733.792L1756.16 884.102C1740.78 908.146 1691.17 945.474 1615.7 902.444C1521.38 848.657 1499.84 883.432 1467.1 900.516C1434.35 917.599 1224.26 1077.42 1131.04 1045.97C1040.03 1015.27 1006.02 916.549 913.637 926.489C839.732 934.44 793.088 907.683 777.152 896.166C761.215 884.649 721.172 848.76 705.527 776.093C685.971 685.259 607.538 639.364 517.288 606.501C427.038 573.638 425.099 531.489 431.042 495.036C436.985 458.584 463.247 427.227 382.573 354.545Z" fill="url(#paint3_linear_1407_2367)"/>
</g>
<defs>
<linearGradient id="paint0_linear_1407_2367" x1="106.722" y1="406.654" x2="1741.15" y2="770.461" gradientUnits="userSpaceOnUse">
<stop stop-color="#6A5ACD"/>
<stop offset="0.5" stop-color="#C54B8C"/>
<stop offset="1" stop-color="#B284BE"/>
</linearGradient>
<linearGradient id="paint1_linear_1407_2367" x1="183.937" y1="381.692" x2="1555.43" y2="877.898" gradientUnits="userSpaceOnUse">
<stop stop-color="#6A5ACD"/>
<stop offset="0.5" stop-color="#C54B8C"/>
<stop offset="1" stop-color="#B284BE"/>
</linearGradient>
<linearGradient id="paint2_linear_1407_2367" x1="133.454" y1="-88.2539" x2="1152.63" y2="955.05" gradientUnits="userSpaceOnUse">
<stop stop-color="#6A5ACD"/>
<stop offset="0.5" stop-color="#C54B8C"/>
<stop offset="1" stop-color="#B284BE"/>
</linearGradient>
<linearGradient id="paint3_linear_1407_2367" x1="405.448" y1="185.619" x2="1608.17" y2="1088.77" gradientUnits="userSpaceOnUse">
<stop stop-color="#6A5ACD"/>
<stop offset="0.5" stop-color="#C54B8C"/>
<stop offset="1" stop-color="#B284BE"/>
</linearGradient>
<clipPath id="clip0_1407_2367">
<rect width="772" height="832" fill="white"/>
</clipPath>
</defs>
</svg>
