<svg width="390" height="457" viewBox="0 0 390 457" fill="none" xmlns="http://www.w3.org/2000/svg">
<g clip-path="url(#clip0_1417_2412)">
<path opacity="0.3" d="M404.963 7.40619C440.376 -24.4109 471.288 -10.1866 482.318 0.902707L657.806 158.354L116.041 762.182L-59.4481 604.731C-71.664 594.964 -89.1446 565.769 -61.3394 527.127C-26.583 478.823 -44.2925 465.082 -51.713 446.251C-59.1334 427.419 -62.9943 404.62 -18.4803 376.529C26.0337 348.438 62.7037 314.742 62.618 263.821C62.5495 223.085 79.8231 199.209 87.0193 191.189C94.2156 183.168 116.085 163.416 156.591 159.084C207.222 153.668 236.76 113.572 259.878 66.2838C282.995 18.9956 306.078 20.3709 325.601 25.7135C345.124 31.0561 360.698 47.1776 404.963 7.40619Z" fill="url(#paint0_linear_1417_2412)"/>
<path opacity="0.6" d="M411.705 37.9996C445.839 14.4543 470.961 30.1832 479.255 40.9908L613.336 196.545L78.0976 657.894L-55.9828 502.339C-65.4491 492.542 -77.3012 465.376 -48.9794 435.087C-13.5771 397.226 -27.347 383.384 -31.6616 366.29C-35.9762 349.195 -36.7741 329.069 4.80814 309.756C46.3904 290.442 81.8201 265.413 87.4135 221.414C91.8883 186.214 109.468 167.51 116.578 161.382C123.687 155.254 144.779 140.625 180.254 141.39C224.597 142.346 254.578 110.995 279.812 72.7159C305.047 34.4367 324.835 38.1938 341.106 44.9823C357.377 51.7707 369.037 67.4313 411.705 37.9996Z" fill="url(#paint1_linear_1417_2412)"/>
<path d="M636.266 94.6326C677.243 88.2763 693.024 113.366 695.792 126.705L748.874 325.091L66.2597 507.738L13.1776 309.352C8.91449 296.412 10.0572 266.795 48.7333 251.838C97.0784 233.143 90.699 214.69 94.2486 197.42C97.798 180.151 105.833 161.681 151.676 162.375C197.519 163.068 240.308 155.939 264.481 118.752C283.819 89.0015 307.784 79.8053 316.851 77.3792C325.918 74.9531 351.274 70.9529 382.885 87.0704C422.399 107.217 463.03 92.0257 502.402 68.5312C541.773 45.0368 557.957 57.0262 569.657 70.2156C581.356 83.405 585.044 102.578 636.266 94.6326Z" fill="url(#paint2_linear_1417_2412)"/>
<path d="M451.749 160.629C491.271 148.08 510.704 170.461 515.48 183.219L598.281 371.152L-48.3649 656.058L-97.8366 598.562C-104.029 586.427 -107.429 556.983 -71.4955 536.287C-26.5788 510.417 -35.7055 493.157 -34.8392 475.548C-33.9729 457.938 -49.0947 332.842 -13.6452 302.035C20.9617 271.961 69.8271 281.778 88.0276 241.33C102.588 208.972 124.864 196.219 133.454 192.434C142.043 188.65 166.488 180.819 200.192 191.912C242.323 205.778 280.153 184.55 315.467 155.31C350.782 126.07 368.609 135.443 382.189 146.688C395.768 157.932 402.345 176.316 451.749 160.629Z" fill="url(#paint3_linear_1417_2412)"/>
</g>
<defs>
<linearGradient id="paint0_linear_1417_2412" x1="495.957" y1="29.3394" x2="-48.3096" y2="614.702" gradientUnits="userSpaceOnUse">
<stop stop-color="#6A5ACD"/>
<stop offset="0.5" stop-color="#C54B8C"/>
<stop offset="1" stop-color="#B284BE"/>
</linearGradient>
<linearGradient id="paint1_linear_1417_2412" x1="487.873" y1="67.0754" x2="-47.4702" y2="512.194" gradientUnits="userSpaceOnUse">
<stop stop-color="#6A5ACD"/>
<stop offset="0.5" stop-color="#C54B8C"/>
<stop offset="1" stop-color="#B284BE"/>
</linearGradient>
<linearGradient id="paint2_linear_1417_2412" x1="692.208" y1="153.941" x2="16.5572" y2="321.927" gradientUnits="userSpaceOnUse">
<stop stop-color="#6A5ACD"/>
<stop offset="0.5" stop-color="#C54B8C"/>
<stop offset="1" stop-color="#B284BE"/>
</linearGradient>
<linearGradient id="paint3_linear_1417_2412" x1="515.802" y1="210.817" x2="-146.42" y2="488.218" gradientUnits="userSpaceOnUse">
<stop stop-color="#6A5ACD"/>
<stop offset="0.5" stop-color="#C54B8C"/>
<stop offset="1" stop-color="#B284BE"/>
</linearGradient>
<clipPath id="clip0_1417_2412">
<rect width="390" height="457" fill="white"/>
</clipPath>
</defs>
</svg>
