<svg width="28" height="28" viewBox="0 0 28 28" fill="none" xmlns="http://www.w3.org/2000/svg">
<path fill-rule="evenodd" clip-rule="evenodd" d="M16.6592 2.51083C16.2275 2.3335 15.6792 2.3335 14.5837 2.3335C13.4882 2.3335 12.941 2.3335 12.5082 2.51083C12.2234 2.6272 11.9644 2.79874 11.7462 3.01558C11.5279 3.23243 11.3547 3.49029 11.2365 3.77433C11.1269 4.0345 11.0849 4.339 11.0674 4.78116C11.059 5.10141 10.9694 5.41429 10.807 5.69041C10.6446 5.96653 10.4146 6.19682 10.1387 6.35966C9.85724 6.51612 9.54084 6.599 9.21881 6.60063C8.89679 6.60226 8.57957 6.52259 8.29654 6.369C7.9022 6.16133 7.61637 6.047 7.33403 6.00966C6.71638 5.92907 6.09185 6.09506 5.5957 6.47166C5.2247 6.754 4.95053 7.22533 4.40337 8.16683C3.85503 9.10833 3.58203 9.5785 3.5202 10.0393C3.43853 10.653 3.60653 11.2737 3.98687 11.7648C4.15953 11.9888 4.40337 12.1767 4.7802 12.4123C5.3367 12.7588 5.6937 13.3492 5.6937 14.0002C5.6937 14.6512 5.3367 15.2415 4.78137 15.5868C4.40337 15.8237 4.15953 16.0115 3.9857 16.2355C3.79853 16.4784 3.66108 16.7558 3.5812 17.0519C3.50133 17.348 3.4806 17.6569 3.5202 17.961C3.58203 18.4207 3.85503 18.892 4.40337 19.8335C4.9517 20.775 5.2247 21.2452 5.5957 21.5287C6.09037 21.9055 6.7157 22.0712 7.33403 21.9907C7.61637 21.9533 7.9022 21.839 8.29654 21.6313C8.57971 21.4775 8.89715 21.3977 9.2194 21.3994C9.54165 21.401 9.85826 21.484 10.1399 21.6407C10.7069 21.9673 11.0429 22.5682 11.0674 23.2192C11.0849 23.6625 11.1269 23.9658 11.2365 24.226C11.4745 24.7977 11.9319 25.2527 12.5082 25.4895C12.9399 25.6668 13.4882 25.6668 14.5837 25.6668C15.6792 25.6668 16.2275 25.6668 16.6592 25.4895C16.944 25.3731 17.203 25.2016 17.4212 24.9847C17.6395 24.7679 17.8127 24.51 17.9309 24.226C18.0405 23.9658 18.0825 23.6625 18.1 23.2192C18.1234 22.5682 18.4605 21.9662 19.0287 21.6407C19.3102 21.4842 19.6266 21.4013 19.9486 21.3997C20.2706 21.3981 20.5878 21.4777 20.8709 21.6313C21.2652 21.839 21.551 21.9533 21.8334 21.9907C22.4517 22.0723 23.077 21.9055 23.5717 21.5287C23.9427 21.2463 24.2169 20.775 24.764 19.8335C25.3124 18.892 25.5854 18.4218 25.6472 17.961C25.6866 17.6568 25.6657 17.3479 25.5856 17.0518C25.5056 16.7557 25.3679 16.4783 25.1805 16.2355C25.0079 16.0115 24.764 15.8237 24.3872 15.588C23.8307 15.2415 23.4737 14.6512 23.4737 14.0002C23.4737 13.3492 23.8307 12.7588 24.386 12.4135C24.764 12.1767 25.0079 11.9888 25.1817 11.7648C25.3689 11.5219 25.5063 11.2445 25.5862 10.9484C25.6661 10.6523 25.6868 10.3434 25.6472 10.0393C25.5854 9.57966 25.3124 9.10833 24.764 8.16683C24.2157 7.22533 23.9427 6.75516 23.5717 6.47166C23.0756 6.09506 22.451 5.92907 21.8334 6.00966C21.551 6.047 21.2652 6.16133 20.8709 6.369C20.5877 6.5228 20.2702 6.60258 19.948 6.60095C19.6258 6.59932 19.3091 6.51632 19.0275 6.35966C18.7519 6.19668 18.5221 5.96632 18.3599 5.69022C18.1977 5.41411 18.1082 5.1013 18.1 4.78116C18.0825 4.33783 18.0405 4.0345 17.9309 3.77433C17.8127 3.49029 17.6395 3.23243 17.4212 3.01558C17.203 2.79874 16.944 2.6272 16.6592 2.51083ZM14.5837 17.5002C16.532 17.5002 18.1105 15.9333 18.1105 14.0002C18.1105 12.067 16.5309 10.5002 14.5837 10.5002C12.6365 10.5002 11.0569 12.067 11.0569 14.0002C11.0569 15.9333 12.6365 17.5002 14.5837 17.5002Z" fill="#41444A"/>
</svg>
